<svg width="88" height="94" viewBox="0 0 88 94" fill="none" xmlns="http://www.w3.org/2000/svg">
<path fill-rule="evenodd" clip-rule="evenodd" d="M60.5801 21.6487C59.1475 21.5387 57.8314 20.8178 56.9676 19.6697C55.3725 17.55 53.3536 15.3468 50.9777 13.2314C46.7209 9.44131 42.3965 6.891 39.0037 5.71702C37.296 5.12613 36.0666 4.96806 35.3244 5.00505C35.2886 5.00683 35.2551 5.00896 35.2236 5.01137C35.2322 5.39803 35.3305 6.10589 35.7609 7.26912C36.6466 9.66252 38.5757 12.784 41.5391 16.0648C42.8961 17.5671 43.2132 19.7394 42.3425 21.567C41.4717 23.3945 39.5848 24.5167 37.5633 24.4092C36.7291 24.3649 35.8792 24.3378 35.0162 24.3291C28.8596 24.267 23.4986 25.1541 19.8537 26.4746C18.3177 27.0311 17.2671 27.5997 16.6168 28.071C17.2575 28.5553 18.2963 29.145 19.8208 29.7324C23.4384 31.1261 28.7804 32.1212 34.937 32.1833C36.6464 32.2005 38.3052 32.1446 39.8912 32.0242C42.0639 31.8594 44.0932 33.1204 44.9074 35.1415C45.7767 37.2993 47.2694 39.5224 49.2744 41.4426C50.7492 42.8549 51.2169 45.0222 50.4559 46.9171C49.6949 48.812 47.8581 50.0537 45.8161 50.0537H32.3976C26.6274 50.0537 21.4552 52.5881 17.9221 56.6213C16.56 58.1762 14.3814 58.7326 12.4405 58.0212C11.8531 57.806 11.2139 57.6862 10.5355 57.6862C7.47834 57.6862 5 60.1645 5 63.2217C5 65.9146 6.92797 68.1681 9.48082 68.6578C11.515 69.048 13.098 70.6521 13.4613 72.6913C15.0647 81.6915 22.9383 88.5244 32.3976 88.5244H46.0798C46.2286 88.5244 46.3771 88.5225 46.5252 88.5188C46.5674 88.5177 46.6095 88.5172 46.6517 88.5172H76.9773C78.661 88.5172 80.026 87.1522 80.026 85.4684C80.026 83.7847 78.661 82.4197 76.9773 82.4197H67.9806C66.3128 82.4197 64.7547 81.5881 63.8265 80.2024C62.8983 78.8167 62.7221 77.0594 63.3568 75.517C65.9646 69.1798 66.6428 62.1716 65.2434 55.3886L64.8013 53.2456C64.5 51.7852 64.8663 50.2665 65.8001 49.104C66.734 47.9414 68.138 47.2564 69.6291 47.2358C73.9578 47.1759 77.3752 46.4786 79.5657 45.1553C81.3491 44.0781 82.6399 42.437 82.6399 38.9503C82.6399 35.9872 81.4937 31.6516 78.5094 28.1354C75.6758 24.7969 70.9313 21.8871 62.9848 21.8871C62.7457 21.8871 62.5068 21.8699 62.2701 21.8357C61.7017 21.7536 61.1379 21.6916 60.5801 21.6487ZM15.9612 27.4529C15.9612 27.4529 15.9669 27.4601 15.9747 27.4745C15.9646 27.4601 15.9612 27.4529 15.9612 27.4529ZM15.9628 28.6545C15.9547 28.6687 15.9489 28.6758 15.9489 28.6758C15.9489 28.6758 15.9524 28.6686 15.9628 28.6545ZM34.8176 5.08277C34.8176 5.08277 34.8239 5.07907 34.839 5.07395C34.8256 5.08059 34.8176 5.08277 34.8176 5.08277ZM60.9628 16.6634C59.1563 14.2626 56.9092 11.8179 54.3026 9.49701C45.0503 1.25933 34.771 -2.29749 31.343 1.55263C29.1434 4.02315 30.2993 8.94312 33.8546 14.3283C34.2415 14.9143 34.6568 15.5058 35.0992 16.1003C35.9185 17.2009 36.8309 18.3116 37.8286 19.4163C36.9227 19.3681 36.001 19.3388 35.0667 19.3294C33.794 19.3165 32.5443 19.3411 31.3248 19.4005C19.9033 19.9563 11.1359 23.5607 11.091 28.0153C11.0413 32.9454 21.6949 37.05 34.8866 37.183C36.7368 37.2017 38.5387 37.1413 40.2696 37.0099C40.6835 38.0373 41.1955 39.0577 41.7966 40.0537C42.8694 41.8312 44.2261 43.531 45.8161 45.0537H32.3976C25.1265 45.0537 18.6033 48.2557 14.1611 53.3266C13.0307 52.9123 11.8095 52.6862 10.5355 52.6862C4.71691 52.6862 0 57.4031 0 63.2217C0 68.3576 3.675 72.6352 8.53881 73.5683C10.5598 84.9121 20.4729 93.5244 32.3976 93.5244H46.0798C46.2708 93.5244 46.4614 93.522 46.6517 93.5172H76.9773C81.4224 93.5172 85.026 89.9136 85.026 85.4684C85.026 81.0233 81.4224 77.4197 76.9773 77.4197H67.9806C68.6521 75.788 69.2118 74.1175 69.6578 72.4197C70.954 67.486 71.2902 62.3227 70.6189 57.2162C70.4942 56.2677 70.3348 55.3211 70.1403 54.3783L69.6982 52.2353C71.4125 52.2116 73.1054 52.0974 74.7264 51.8617C81.8848 50.8208 87.6399 47.4094 87.6399 38.9503C87.6399 30.9003 81.6757 16.8871 62.9848 16.8871C62.3063 16.789 61.6318 16.7148 60.9628 16.6634Z" fill="black"/>
<path fill-rule="evenodd" clip-rule="evenodd" d="M21.6898 69.2965C21.6898 62.6487 27.079 57.2595 33.7268 57.2595H39.2206C40.6013 57.2595 41.7206 58.3788 41.7206 59.7595C41.7206 61.1402 40.6013 62.2595 39.2206 62.2595H33.7268C29.8404 62.2595 26.6898 65.4101 26.6898 69.2965C26.6898 73.1829 29.8404 76.3335 33.7268 76.3335H39.2206C40.6013 76.3335 41.7206 77.4528 41.7206 78.8335C41.7206 80.2142 40.6013 81.3335 39.2206 81.3335H33.7268C27.079 81.3335 21.6898 75.9443 21.6898 69.2965Z" fill="black"/>
</svg>
